<svg width="65" height="64" viewBox="0 0 65 64" fill="none" xmlns="http://www.w3.org/2000/svg">
<g clip-path="url(#clip0_1_111)">
<path d="M44.903 0.448151H19.691C16.2168 0.448151 13.388 3.27699 13.388 6.75115V57.1751C13.388 60.6518 16.2168 63.4781 19.691 63.4781H44.903C48.3797 63.4781 51.206 60.6518 51.206 57.1751V6.75115C51.206 3.27699 48.3797 0.448151 44.903 0.448151ZM48.6848 57.1751C48.6848 59.2601 46.988 60.9569 44.903 60.9569H19.691C17.6059 60.9569 15.9092 59.2601 15.9092 57.1751V6.75115C15.9092 4.66611 17.6059 2.96935 19.691 2.96935H44.903C46.988 2.96935 48.6848 4.66611 48.6848 6.75115V57.1751Z" fill="#FBFBFE"/>
<path fill-rule="evenodd" clip-rule="evenodd" d="M12.9649 6.75116C12.9649 3.04338 15.9832 0.0251465 19.6909 0.0251465H44.9029C48.6134 0.0251465 51.6289 3.04349 51.6289 6.75116V57.1751C51.6289 60.8855 48.6133 63.9011 44.9029 63.9011H19.6909C15.9833 63.9011 12.9649 60.8856 12.9649 57.1751V6.75116ZM19.6909 0.871192C16.4504 0.871192 13.811 3.51064 13.811 6.75116V57.1751C13.811 60.4181 16.4503 63.0551 19.6909 63.0551H44.9029C48.146 63.0551 50.7829 60.4182 50.7829 57.1751V6.75116C50.7829 3.51052 48.1459 0.871192 44.9029 0.871192H19.6909ZM19.6909 3.39239C17.8395 3.39239 16.3322 4.89976 16.3322 6.75116V57.1751C16.3322 59.0265 17.8395 60.5339 19.6909 60.5339H44.9029C46.7543 60.5339 48.2617 59.0265 48.2617 57.1751V6.75116C48.2617 4.89976 46.7543 3.39239 44.9029 3.39239H19.6909ZM15.4861 6.75116C15.4861 4.4325 17.3723 2.54634 19.6909 2.54634H44.9029C47.2216 2.54634 49.1077 4.4325 49.1077 6.75116V57.1751C49.1077 59.4938 47.2216 61.3799 44.9029 61.3799H19.6909C17.3723 61.3799 15.4861 59.4938 15.4861 57.1751V6.75116Z" fill="#FBFBFE"/>
<path d="M34.8182 5.49057H29.7758C29.0799 5.49057 28.5152 6.05538 28.5152 6.75117C28.5152 7.44696 29.08 8.01177 29.7758 8.01177H34.8182C35.514 8.01177 36.0788 7.44696 36.0788 6.75117C36.0788 6.05538 35.514 5.49057 34.8182 5.49057Z" fill="#FBFBFE"/>
<path fill-rule="evenodd" clip-rule="evenodd" d="M28.0921 6.75116C28.0921 5.82176 28.8462 5.06754 29.7758 5.06754H34.8182C35.7476 5.06754 36.5018 5.82174 36.5018 6.75116C36.5018 7.68058 35.7476 8.43478 34.8182 8.43478H29.7758C28.8463 8.43478 28.0921 7.68058 28.0921 6.75116ZM29.7758 5.91358C29.3135 5.91358 28.9382 6.28897 28.9382 6.75116C28.9382 7.21332 29.3136 7.58873 29.7758 7.58873H34.8182C35.2803 7.58873 35.6557 7.21332 35.6557 6.75116C35.6557 6.28899 35.2803 5.91358 34.8182 5.91358H29.7758Z" fill="#FBFBFE"/>
<path d="M32.2969 55.9145C31.6011 55.9145 31.0362 56.4793 31.0362 57.1751C31.0362 57.8709 31.6011 58.4357 32.2969 58.4357C32.9927 58.4357 33.5575 57.8709 33.5575 57.1751C33.5575 56.4793 32.9927 55.9145 32.2969 55.9145Z" fill="#2A3B47" stroke="#FBFBFE" stroke-width="1.41947"/>
<path fill-rule="evenodd" clip-rule="evenodd" d="M30.6133 57.1751C30.6133 56.2456 31.3675 55.4915 32.2969 55.4915C33.2264 55.4915 33.9806 56.2456 33.9806 57.1751C33.9806 58.1045 33.2264 58.8587 32.2969 58.8587C31.3675 58.8587 30.6133 58.1045 30.6133 57.1751ZM32.2969 56.3375C31.8347 56.3375 31.4593 56.7129 31.4593 57.1751C31.4593 57.6372 31.8347 58.0127 32.2969 58.0127C32.7591 58.0127 33.1345 57.6372 33.1345 57.1751C33.1345 56.7129 32.7591 56.3375 32.2969 56.3375Z" fill="#2A3B47" stroke="#FBFBFE" stroke-width="1.41947"/>
<path d="M49.9453 10.533H14.6486C13.9527 10.533 13.388 11.0978 13.388 11.7936C13.388 12.4895 13.9527 13.0542 14.6486 13.0542H49.9453C50.6411 13.0542 51.206 12.4894 51.206 11.7936C51.206 11.0978 50.6411 10.533 49.9453 10.533Z" fill="#FBFBFE"/>
<path fill-rule="evenodd" clip-rule="evenodd" d="M12.9649 11.7936C12.9649 10.8642 13.719 10.11 14.6485 10.11H49.9453C50.8747 10.11 51.6289 10.8642 51.6289 11.7936C51.6289 12.723 50.8747 13.4772 49.9453 13.4772H14.6485C13.719 13.4772 12.9649 12.7231 12.9649 11.7936ZM14.6485 10.956C14.1863 10.956 13.811 11.3314 13.811 11.7936C13.811 12.2559 14.1863 12.6312 14.6485 12.6312H49.9453C50.4075 12.6312 50.7829 12.2557 50.7829 11.7936C50.7829 11.3314 50.4075 10.956 49.9453 10.956H14.6485Z" fill="#FBFBFE"/>
<path d="M49.9453 50.8721H14.6486C13.9527 50.8721 13.388 51.4369 13.388 52.1327C13.388 52.8285 13.9527 53.3933 14.6486 53.3933H49.9453C50.6411 53.3933 51.206 52.8285 51.206 52.1327C51.206 51.4369 50.6411 50.8721 49.9453 50.8721Z" fill="#FBFBFE"/>
<path fill-rule="evenodd" clip-rule="evenodd" d="M12.9649 52.1327C12.9649 51.2033 13.719 50.4491 14.6485 50.4491H49.9453C50.8747 50.4491 51.6289 51.2033 51.6289 52.1327C51.6289 53.0621 50.8747 53.8163 49.9453 53.8163H14.6485C13.719 53.8163 12.9649 53.0621 12.9649 52.1327ZM14.6485 51.2951C14.1863 51.2951 13.811 51.6705 13.811 52.1327C13.811 52.5949 14.1863 52.9703 14.6485 52.9703H49.9453C50.4075 52.9703 50.7829 52.5949 50.7829 52.1327C50.7829 51.6706 50.4075 51.2951 49.9453 51.2951H14.6485Z" fill="#FBFBFE"/>
</g>
<defs>
<clipPath id="clip0_1_111">
<rect width="63.876" height="63.876" fill="white" transform="translate(0.358902 0.0251465)"/>
</clipPath>
</defs>
</svg>
