<svg width="65" height="66" viewBox="0 0 65 66" fill="none" xmlns="http://www.w3.org/2000/svg">
<path d="M0.358902 5.60251C0.358902 3.06009 2.4722 0.997803 5.07921 0.997803H59.5146C62.1215 0.997803 64.2349 3.06009 64.2349 5.60251V60.6743C64.2349 63.2176 62.1215 65.2791 59.5146 65.2791H5.07921C2.4722 65.2791 0.358902 63.2176 0.358902 60.6743V5.60251Z" fill="#FEFEFE"/>
<path fill-rule="evenodd" clip-rule="evenodd" d="M19.7188 54.8083V25.7818H10.0709V54.8083H19.7188ZM14.8948 21.8187C18.2592 21.8187 20.3533 19.5898 20.3533 16.8043C20.2906 13.9561 18.2592 11.789 14.9586 11.789C11.6584 11.789 9.50055 13.9561 9.50055 16.8043C9.50055 19.5898 11.5942 21.8187 14.8319 21.8187H14.8946H14.8948Z" fill="#1C3441"/>
<path fill-rule="evenodd" clip-rule="evenodd" d="M25.0591 54.8083H34.7076V38.5975C34.7076 37.73 34.7703 36.8632 35.0251 36.2431C35.7226 34.5096 37.3102 32.7143 39.9756 32.7143C43.4669 32.7143 44.8636 35.3763 44.8636 39.2787V54.8083H54.5113V38.1637C54.5113 29.2475 49.7512 25.0986 43.4032 25.0986C38.1981 25.0986 35.913 28.0079 34.6434 29.9896H34.7078V25.7797H25.0594C25.186 28.5036 25.0594 54.8083 25.0594 54.8083H25.0591Z" fill="#1C3441"/>
</svg>
